<svg width="12px" height="8px" viewBox="0 0 12 8" version="1.1" xmlns="http://www.w3.org/2000/svg" xmlns:xlink="http://www.w3.org/1999/xlink">
    <g id="Symbols" stroke="none" stroke-width="1" fill="none" fill-rule="evenodd">
        <g id="input/select/square/added-hover" transform="translate(-2.000000, -4.000000)" fill="#21243d">
            <path d="M13.3012938,5.10434049 L12.33615,4.18852638 C12.2038118,4.06285785 12.0428634,4 11.8536775,4 C11.6643176,4 11.5033691,4.06285785 11.371031,4.18852638 L6.71548219,8.61279918 L4.62901861,6.62623165 C4.49653131,6.50051595 4.33568229,6.43772886 4.1464964,6.43772886 C3.95718623,6.43772886 3.79633721,6.50051595 3.66384992,6.62623165 L2.69870608,7.54206936 C2.56621879,7.66776147 2.5,7.82043647 2.5,8.00004717 C2.5,8.17951636 2.56621879,8.33233288 2.69870608,8.4580014 L5.26769187,10.8956359 L6.23291028,11.81145 C6.365323,11.9372129 6.52622173,12 6.71548219,12 C6.90466808,12 7.06556682,11.9370478 7.19805411,11.81145 L8.16324766,10.8956359 L13.3012938,6.02022537 C13.4336568,5.89450967 13.5,5.74185826 13.5,5.56224755 C13.5,5.38273119 13.4336568,5.23005619 13.3012938,5.10434049 Z" id="Path"></path>
        </g>
    </g>
</svg>
